<svg width="80" height="39" viewBox="0 0 80 39" fill="none" xmlns="http://www.w3.org/2000/svg">
<g id="Layer 1">
<path id="Vector" d="M4.54314 13.2826C4.69513 13.0362 4.9051 12.8307 5.15474 12.6841C5.42797 12.53 5.73498 12.4456 6.04861 12.4384C6.73599 12.4044 8.72759 12.3835 11.4144 12.4254C11.6428 12.4672 11.859 12.5593 12.0475 12.6949C12.236 12.8305 12.392 13.0062 12.5043 13.2094C12.6224 13.4465 12.6838 13.7078 12.6838 13.9726C12.6838 14.2375 12.6224 14.4987 12.5043 14.7358L9.36794 20.5982L6.98429 24.8088C6.91634 24.9108 6.14008 26.1156 6.33349 27.0487C6.37648 27.2608 6.45513 27.4641 6.56611 27.6499C6.64531 27.8081 6.76417 27.9432 6.91111 28.0419C7.07041 28.1487 7.25774 28.206 7.44952 28.2066C10.382 28.2275 12.5095 28.2275 12.9695 28.2275C13.2091 28.2333 13.446 28.1766 13.6569 28.0628C13.8732 27.9469 14.0539 27.7743 14.1797 27.5636C14.7477 26.5181 15.3288 25.457 15.923 24.3802C16.7018 22.9775 17.4859 21.6001 18.2753 20.248L25.4732 33.2509C25.6045 33.5613 25.6675 33.8962 25.658 34.2331C25.6485 34.5699 25.5668 34.9008 25.4184 35.2033C25.1559 35.6936 24.7108 36.0608 24.1795 36.2252L10.4709 36.2488C10.1573 36.2667 9.84639 36.1823 9.58487 36.0083C9.37124 35.8692 9.19599 35.6787 9.07521 35.4542C4.68428 27.7832 1.49563 22.1298 1.20813 21.466C1.09059 21.2061 1.01136 20.9305 0.972899 20.6479C0.94351 20.308 0.978988 19.9657 1.07745 19.639L2.6195 16.5967L4.54314 13.2826Z" fill="#002244"/>
<path id="Vector_2" d="M35.1442 14.0013L27.3712 0.710913C27.2167 0.501344 27.0188 0.327518 26.791 0.201251C26.5665 0.0815724 26.3185 0.0128576 26.0644 0L12.6303 0.22216C12.4428 0.218416 12.2563 0.251263 12.0814 0.318865C11.6595 0.516613 11.3314 0.871022 11.1666 1.30682C11.0735 1.56535 11.0323 1.83968 11.0453 2.11415C11.0583 2.38861 11.1253 2.65782 11.2424 2.90638L22.9516 24.1057C26.5871 24.0456 29.2008 23.9907 30.126 24.0456C30.5418 24.082 30.9597 24.0062 31.3361 23.826C31.6625 23.6562 31.9411 23.4073 32.1464 23.102L35.3298 15.8622C35.4706 15.5163 35.5105 15.1375 35.4448 14.7697C35.3975 14.4959 35.2953 14.2345 35.1442 14.0013ZM29.9169 20.2741C29.8128 20.411 29.6798 20.5234 29.5275 20.6034C29.4378 20.6456 29.3429 20.6755 29.2452 20.6923C26.7988 20.789 24.9562 20.6086 24.2192 20.3551C23.9018 20.2432 23.5977 20.0969 23.3122 19.9186C22.997 19.7054 22.7099 19.4534 22.4576 19.1685C21.9218 18.5569 18.6678 13.0682 14.3631 5.42332C17.3923 5.50957 19.6557 5.58798 20.6672 5.59844C21.0616 5.59352 21.4515 5.68315 21.8042 5.8598C22.2415 6.08817 22.609 6.43041 22.8679 6.85037C23.4691 7.75992 26.216 12.4932 29.8777 19.03C29.9941 19.2159 30.0597 19.4291 30.068 19.6484C30.0762 19.8676 30.0268 20.0851 29.9248 20.2793L29.9169 20.2741Z" fill="#002244"/>
<path id="Vector_3" d="M34.5322 34.4636H30.6117L29.9191 36.2514H26.375L30.8888 25.9875H34.31L38.8264 36.2514H35.2248L34.5322 34.4636ZM33.573 31.9702L32.5693 29.3879L31.5683 31.9702H33.573Z" fill="#002244"/>
<path id="Vector_4" d="M38.9492 25.8987C38.9492 24.9473 39.7333 24.2129 40.9539 24.2129C42.1745 24.2129 42.9612 24.8872 42.9612 25.8412C42.9612 26.8527 42.1771 27.5845 40.9539 27.5845C39.7307 27.5845 38.9492 26.8527 38.9492 25.8987ZM39.289 28.2301H42.6214V36.2514H39.289V28.2301Z" fill="#002244"/>
<path id="Vector_5" d="M56.0046 37.5423C55.6312 37.97 55.1673 38.3092 54.6465 38.5352C54.1257 38.7613 53.5611 38.8685 52.9937 38.8491C51.1641 38.8491 50.0298 38.2767 48.1715 36.3426C45.5735 35.799 43.791 33.7603 43.791 31.1153C43.791 28.0077 46.2531 25.7495 49.6168 25.7495C52.9806 25.7495 55.4427 28.0077 55.4427 31.1153C55.4584 32.1754 55.1468 33.2144 54.5505 34.0909C53.9541 34.9674 53.102 35.6387 52.1103 36.0133C52.2275 36.1522 52.3748 36.2627 52.5409 36.3365C52.7071 36.4103 52.8878 36.4455 53.0695 36.4393C53.3396 36.4289 53.605 36.3651 53.8504 36.2516C54.0957 36.1381 54.3162 35.9772 54.4991 35.7781L56.0046 37.5423ZM47.3011 31.1179C47.3011 32.7175 48.3335 33.6846 49.6168 33.6846C50.9001 33.6846 51.9325 32.7175 51.9325 31.1179C51.9325 29.5184 50.9001 28.554 49.6168 28.554C48.3335 28.554 47.3011 29.5341 47.3011 31.1179Z" fill="#002244"/>
<path id="Vector_6" d="M65.2987 33.6403V36.254H56.7129V25.9875H65.1053V28.6012H60.1394V29.7956H64.5068V32.2864H60.1342V33.6351L65.2987 33.6403Z" fill="#002244"/>
<path id="Vector_7" d="M75.8674 36.2514L75.8387 31.5729L73.5962 35.3287H72.0672L69.8247 31.735V36.2514H66.6465V25.9875H69.5084L72.8722 31.4553L76.1471 25.9875H79.009L79.0378 36.2514H75.8674Z" fill="#002244"/>
</g>
</svg>
