<svg width="66" height="66" viewBox="0 0 66 66" fill="none" xmlns="http://www.w3.org/2000/svg">
<g filter="url(#filter0_d_3629_24529)">
<path d="M29.6819 24.8534C30.3199 26.303 31.1896 27.6616 32.2911 28.8632C33.3925 30.0648 34.638 31.0136 35.9668 31.7096C36.0811 31.7694 36.1382 31.7994 36.2105 31.8223C36.4675 31.9041 36.7831 31.8454 37.0007 31.6754C37.062 31.6275 37.1144 31.5704 37.2192 31.4561C37.5396 31.1064 37.6999 30.9316 37.861 30.8174C38.4687 30.3864 39.252 30.3864 39.8597 30.8174C40.0208 30.9316 40.181 31.1064 40.5015 31.4561L40.6801 31.6509C41.1673 32.1824 41.4109 32.4481 41.5432 32.7335C41.8063 33.301 41.8063 33.9713 41.5432 34.5389C41.4109 34.8242 41.1673 35.09 40.6801 35.6214L40.5356 35.779C40.0502 36.3087 39.8074 36.5735 39.4774 36.7757C39.1112 37.0001 38.5424 37.1615 38.1224 37.1601C37.7438 37.1589 37.4851 37.0788 36.9677 36.9186C34.1871 36.0576 31.5633 34.4331 29.3743 32.0452C27.1853 29.6572 25.6962 26.7948 24.907 23.7614C24.7601 23.197 24.6867 22.9148 24.6856 22.5018C24.6843 22.0436 24.8322 21.4231 25.0379 21.0236C25.2233 20.6636 25.4661 20.3988 25.9516 19.8691L26.0961 19.7115C26.5832 19.1801 26.8268 18.9143 27.0884 18.77C27.6087 18.4829 28.2231 18.4829 28.7433 18.77C29.0049 18.9143 29.2485 19.1801 29.7357 19.7115L29.9143 19.9064C30.2348 20.256 30.395 20.4308 30.4998 20.6066C30.8948 21.2694 30.8948 22.124 30.4998 22.7869C30.395 22.9627 30.2348 23.1375 29.9143 23.4871C29.8095 23.6014 29.7571 23.6586 29.7133 23.7254C29.5574 23.9628 29.5036 24.3071 29.5785 24.5874C29.5996 24.6663 29.627 24.7287 29.6819 24.8534Z" stroke="#FF4F18" stroke-width="2" stroke-linecap="round" stroke-linejoin="round"/>
<rect x="55" y="50" width="44" height="44" rx="22" transform="rotate(-180 55 50)" stroke="#FF4F18" stroke-width="2"/>
</g>
<defs>
<filter id="filter0_d_3629_24529" x="0" y="0" width="66" height="66" filterUnits="userSpaceOnUse" color-interpolation-filters="sRGB">
<feFlood flood-opacity="0" result="BackgroundImageFix"/>
<feColorMatrix in="SourceAlpha" type="matrix" values="0 0 0 0 0 0 0 0 0 0 0 0 0 0 0 0 0 0 127 0" result="hardAlpha"/>
<feOffset dy="5"/>
<feGaussianBlur stdDeviation="5"/>
<feColorMatrix type="matrix" values="0 0 0 0 0 0 0 0 0 0 0 0 0 0 0 0 0 0 0.25 0"/>
<feBlend mode="normal" in2="BackgroundImageFix" result="effect1_dropShadow_3629_24529"/>
<feBlend mode="normal" in="SourceGraphic" in2="effect1_dropShadow_3629_24529" result="shape"/>
</filter>
</defs>
</svg>
