<svg width="80" height="80" viewBox="0 0 80 80" fill="none" xmlns="http://www.w3.org/2000/svg">
<g filter="url(#filter0_d_2919_18301)">
<rect x="10" y="5" width="60" height="60" rx="30" fill="url(#paint0_linear_2919_18301)"/>
<path d="M50.4892 44.3202C50.2078 46.1496 48.6337 47.5 46.7828 47.5H30C28.6193 47.5 27.5 46.3807 27.5 45V36.25C27.5 34.8693 28.6193 33.75 30 33.75H32.9377C33.4316 33.75 33.8793 33.4591 34.0799 33.0077L38.4788 23.1102C38.6437 22.7391 39.0117 22.5 39.4177 22.5C41.12 22.5 42.5 23.88 42.5 25.5823V30C42.5 30.6904 43.0596 31.25 43.75 31.25H48.129C50.4273 31.25 52.1848 33.2986 51.8354 35.5702L50.4892 44.3202Z" fill="url(#paint1_linear_2919_18301)"/>
<path d="M33.75 47.5V33.75M27.5 36.25V45C27.5 46.3807 28.6193 47.5 30 47.5H46.7828C48.6337 47.5 50.2078 46.1496 50.4892 44.3202L51.8354 35.5702C52.1848 33.2986 50.4273 31.25 48.129 31.25H43.75C43.0596 31.25 42.5 30.6904 42.5 30V25.5823C42.5 23.88 41.12 22.5 39.4177 22.5C39.0117 22.5 38.6437 22.7391 38.4788 23.1102L34.0799 33.0077C33.8793 33.4591 33.4316 33.75 32.9377 33.75H30C28.6193 33.75 27.5 34.8693 27.5 36.25Z" stroke="white" stroke-width="2" stroke-linecap="round" stroke-linejoin="round"/>
<rect x="11" y="6" width="58" height="58" rx="29" stroke="url(#paint2_linear_2919_18301)" stroke-width="2"/>
</g>
<defs>
<filter id="filter0_d_2919_18301" x="0" y="0" width="80" height="80" filterUnits="userSpaceOnUse" color-interpolation-filters="sRGB">
<feFlood flood-opacity="0" result="BackgroundImageFix"/>
<feColorMatrix in="SourceAlpha" type="matrix" values="0 0 0 0 0 0 0 0 0 0 0 0 0 0 0 0 0 0 127 0" result="hardAlpha"/>
<feOffset dy="5"/>
<feGaussianBlur stdDeviation="5"/>
<feColorMatrix type="matrix" values="0 0 0 0 0 0 0 0 0 0 0 0 0 0 0 0 0 0 0.25 0"/>
<feBlend mode="normal" in2="BackgroundImageFix" result="effect1_dropShadow_2919_18301"/>
<feBlend mode="normal" in="SourceGraphic" in2="effect1_dropShadow_2919_18301" result="shape"/>
</filter>
<linearGradient id="paint0_linear_2919_18301" x1="40" y1="5" x2="40" y2="65" gradientUnits="userSpaceOnUse">
<stop stop-color="#340960"/>
<stop offset="1" stop-color="#7541A8"/>
</linearGradient>
<linearGradient id="paint1_linear_2919_18301" x1="39.6899" y1="22.5" x2="39.6899" y2="47.5" gradientUnits="userSpaceOnUse">
<stop stop-color="#E8D1FF"/>
<stop offset="1" stop-color="#AA76DE"/>
</linearGradient>
<linearGradient id="paint2_linear_2919_18301" x1="40" y1="5" x2="40" y2="65" gradientUnits="userSpaceOnUse">
<stop offset="0.260417" stop-color="#340960"/>
<stop offset="1" stop-color="#7743AA"/>
</linearGradient>
</defs>
</svg>
