<svg width="66" height="66" viewBox="0 0 66 66" fill="none" xmlns="http://www.w3.org/2000/svg">
<g filter="url(#filter0_d_3629_24528)">
<g clip-path="url(#clip0_3629_24528)">
<path d="M33.0001 38C30.7072 35.2616 29.4042 31.708 29.3334 28C29.4042 24.292 30.7072 20.7384 33.0001 18M33.0001 38C35.2929 35.2616 36.5959 31.708 36.6667 28C36.5959 24.292 35.2929 20.7384 33.0001 18M33.0001 38C38.0627 38 42.1667 33.5228 42.1667 28C42.1667 22.4772 38.0627 18 33.0001 18M33.0001 38C27.9375 38 23.8334 33.5228 23.8334 28C23.8334 22.4772 27.9375 18 33.0001 18M41.7084 31L24.2917 31M41.7084 25L24.2917 25" stroke="#017ED9" stroke-width="2" stroke-linecap="round" stroke-linejoin="round"/>
</g>
<rect x="55" y="50" width="44" height="44" rx="22" transform="rotate(-180 55 50)" stroke="#017ED9" stroke-width="2"/>
</g>
<defs>
<filter id="filter0_d_3629_24528" x="0" y="0" width="66" height="66" filterUnits="userSpaceOnUse" color-interpolation-filters="sRGB">
<feFlood flood-opacity="0" result="BackgroundImageFix"/>
<feColorMatrix in="SourceAlpha" type="matrix" values="0 0 0 0 0 0 0 0 0 0 0 0 0 0 0 0 0 0 127 0" result="hardAlpha"/>
<feOffset dy="5"/>
<feGaussianBlur stdDeviation="5"/>
<feColorMatrix type="matrix" values="0 0 0 0 0 0 0 0 0 0 0 0 0 0 0 0 0 0 0.25 0"/>
<feBlend mode="normal" in2="BackgroundImageFix" result="effect1_dropShadow_3629_24528"/>
<feBlend mode="normal" in="SourceGraphic" in2="effect1_dropShadow_3629_24528" result="shape"/>
</filter>
<clipPath id="clip0_3629_24528">
<rect width="22" height="24" fill="white" transform="translate(44 40) rotate(-180)"/>
</clipPath>
</defs>
</svg>
